<mxfile host="app.diagrams.net" agent="Mozilla/5.0 (Windows NT 10.0; Win64; x64) AppleWebKit/537.36 (KHTML, like Gecko) Chrome/130.0.0.0 Safari/537.36" version="24.8.4">
  <diagram id="C5RBs43oDa-KdzZeNtuy" name="Page-1">
    <mxGraphModel dx="1050" dy="572" grid="1" gridSize="10" guides="1" tooltips="1" connect="1" arrows="1" fold="1" page="1" pageScale="1" pageWidth="827" pageHeight="1169" math="0" shadow="0">
      <root>
        <mxCell id="WIyWlLk6GJQsqaUBKTNV-0" />
        <mxCell id="WIyWlLk6GJQsqaUBKTNV-1" parent="WIyWlLk6GJQsqaUBKTNV-0" />
        <mxCell id="CKdBgYDA7S_xCmzbfcw5-18" value="" style="shape=process;whiteSpace=wrap;html=1;backgroundOutline=1;" parent="WIyWlLk6GJQsqaUBKTNV-1" vertex="1">
          <mxGeometry x="80" y="320" width="650" height="420" as="geometry" />
        </mxCell>
        <mxCell id="CKdBgYDA7S_xCmzbfcw5-57" value="" style="edgeStyle=orthogonalEdgeStyle;rounded=0;orthogonalLoop=1;jettySize=auto;html=1;exitX=0.655;exitY=1.032;exitDx=0;exitDy=0;exitPerimeter=0;" parent="WIyWlLk6GJQsqaUBKTNV-1" source="CKdBgYDA7S_xCmzbfcw5-69" edge="1">
          <mxGeometry relative="1" as="geometry">
            <mxPoint x="520" y="770" as="sourcePoint" />
            <mxPoint x="506" y="827" as="targetPoint" />
          </mxGeometry>
        </mxCell>
        <mxCell id="CKdBgYDA7S_xCmzbfcw5-58" value="Order Details" style="edgeLabel;html=1;align=center;verticalAlign=middle;resizable=0;points=[];" parent="CKdBgYDA7S_xCmzbfcw5-57" vertex="1" connectable="0">
          <mxGeometry x="0.0661" relative="1" as="geometry">
            <mxPoint as="offset" />
          </mxGeometry>
        </mxCell>
        <mxCell id="CKdBgYDA7S_xCmzbfcw5-46" value="" style="edgeStyle=orthogonalEdgeStyle;rounded=0;orthogonalLoop=1;jettySize=auto;html=1;" parent="WIyWlLk6GJQsqaUBKTNV-1" source="CKdBgYDA7S_xCmzbfcw5-11" target="CKdBgYDA7S_xCmzbfcw5-45" edge="1">
          <mxGeometry relative="1" as="geometry">
            <Array as="points">
              <mxPoint x="270" y="340" />
              <mxPoint x="270" y="340" />
            </Array>
          </mxGeometry>
        </mxCell>
        <mxCell id="CKdBgYDA7S_xCmzbfcw5-50" value="" style="edgeStyle=orthogonalEdgeStyle;rounded=0;orthogonalLoop=1;jettySize=auto;html=1;" parent="WIyWlLk6GJQsqaUBKTNV-1" source="CKdBgYDA7S_xCmzbfcw5-11" edge="1">
          <mxGeometry relative="1" as="geometry">
            <Array as="points">
              <mxPoint x="559" y="370" />
              <mxPoint x="559" y="370" />
            </Array>
            <mxPoint x="559" y="410" as="targetPoint" />
          </mxGeometry>
        </mxCell>
        <mxCell id="CKdBgYDA7S_xCmzbfcw5-11" value="Retrieval Layer" style="rounded=1;whiteSpace=wrap;html=1;fontSize=12;glass=0;strokeWidth=1;shadow=0;" parent="WIyWlLk6GJQsqaUBKTNV-1" vertex="1">
          <mxGeometry x="80" y="320" width="650" height="40" as="geometry" />
        </mxCell>
        <mxCell id="CKdBgYDA7S_xCmzbfcw5-64" style="edgeStyle=orthogonalEdgeStyle;rounded=0;orthogonalLoop=1;jettySize=auto;html=1;" parent="WIyWlLk6GJQsqaUBKTNV-1" target="CKdBgYDA7S_xCmzbfcw5-36" edge="1">
          <mxGeometry relative="1" as="geometry">
            <Array as="points">
              <mxPoint x="399" y="500" />
              <mxPoint x="399" y="500" />
            </Array>
            <mxPoint x="399" y="490" as="sourcePoint" />
          </mxGeometry>
        </mxCell>
        <mxCell id="CKdBgYDA7S_xCmzbfcw5-68" style="edgeStyle=orthogonalEdgeStyle;rounded=0;orthogonalLoop=1;jettySize=auto;html=1;" parent="WIyWlLk6GJQsqaUBKTNV-1" edge="1">
          <mxGeometry relative="1" as="geometry">
            <mxPoint x="558" y="540" as="targetPoint" />
            <Array as="points">
              <mxPoint x="558" y="510" />
              <mxPoint x="559" y="540" />
            </Array>
            <mxPoint x="558" y="490" as="sourcePoint" />
          </mxGeometry>
        </mxCell>
        <mxCell id="CKdBgYDA7S_xCmzbfcw5-29" style="edgeStyle=orthogonalEdgeStyle;rounded=0;orthogonalLoop=1;jettySize=auto;html=1;" parent="WIyWlLk6GJQsqaUBKTNV-1" source="CKdBgYDA7S_xCmzbfcw5-28" target="CKdBgYDA7S_xCmzbfcw5-11" edge="1">
          <mxGeometry relative="1" as="geometry">
            <Array as="points">
              <mxPoint x="380" y="260" />
              <mxPoint x="380" y="260" />
            </Array>
          </mxGeometry>
        </mxCell>
        <mxCell id="CKdBgYDA7S_xCmzbfcw5-34" value="JSON payload &lt;br&gt;retrieval" style="edgeLabel;html=1;align=center;verticalAlign=middle;resizable=0;points=[];" parent="CKdBgYDA7S_xCmzbfcw5-29" vertex="1" connectable="0">
          <mxGeometry x="-0.0762" y="1" relative="1" as="geometry">
            <mxPoint as="offset" />
          </mxGeometry>
        </mxCell>
        <mxCell id="CKdBgYDA7S_xCmzbfcw5-28" value="&#xa;&lt;span style=&quot;color: rgb(0, 0, 0); font-family: Helvetica; font-size: 12px; font-style: normal; font-variant-ligatures: normal; font-variant-caps: normal; font-weight: 400; letter-spacing: normal; orphans: 2; text-align: center; text-indent: 0px; text-transform: none; widows: 2; word-spacing: 0px; -webkit-text-stroke-width: 0px; white-space: normal; background-color: rgb(251, 251, 251); text-decoration-thickness: initial; text-decoration-style: initial; text-decoration-color: initial; display: inline !important; float: none;&quot;&gt;ASX Signal B Market Data Feed&lt;/span&gt;&#xa;&#xa;" style="rounded=1;whiteSpace=wrap;html=1;" parent="WIyWlLk6GJQsqaUBKTNV-1" vertex="1">
          <mxGeometry x="100" y="180" width="610" height="60" as="geometry" />
        </mxCell>
        <mxCell id="CKdBgYDA7S_xCmzbfcw5-31" value="" style="endArrow=none;dashed=1;html=1;dashPattern=1 3;strokeWidth=2;rounded=0;entryX=0.25;entryY=1;entryDx=0;entryDy=0;" parent="WIyWlLk6GJQsqaUBKTNV-1" edge="1">
          <mxGeometry width="50" height="50" relative="1" as="geometry">
            <mxPoint x="558" y="320" as="sourcePoint" />
            <mxPoint x="558.4" y="240" as="targetPoint" />
          </mxGeometry>
        </mxCell>
        <mxCell id="CKdBgYDA7S_xCmzbfcw5-33" value="&amp;nbsp;Listener &lt;br&gt;process" style="edgeLabel;html=1;align=center;verticalAlign=middle;resizable=0;points=[];" parent="CKdBgYDA7S_xCmzbfcw5-31" vertex="1" connectable="0">
          <mxGeometry x="0.0531" relative="1" as="geometry">
            <mxPoint as="offset" />
          </mxGeometry>
        </mxCell>
        <mxCell id="CKdBgYDA7S_xCmzbfcw5-70" value="" style="edgeStyle=orthogonalEdgeStyle;rounded=0;orthogonalLoop=1;jettySize=auto;html=1;" parent="WIyWlLk6GJQsqaUBKTNV-1" edge="1">
          <mxGeometry relative="1" as="geometry">
            <Array as="points">
              <mxPoint x="390" y="660" />
              <mxPoint x="390" y="660" />
            </Array>
            <mxPoint x="390" y="590" as="sourcePoint" />
            <mxPoint x="390" y="680" as="targetPoint" />
          </mxGeometry>
        </mxCell>
        <mxCell id="CKdBgYDA7S_xCmzbfcw5-77" value="System&amp;nbsp;&lt;br&gt;State&lt;br&gt;Update" style="edgeStyle=orthogonalEdgeStyle;rounded=0;orthogonalLoop=1;jettySize=auto;html=1;" parent="WIyWlLk6GJQsqaUBKTNV-1" edge="1">
          <mxGeometry relative="1" as="geometry">
            <Array as="points">
              <mxPoint x="260" y="540" />
              <mxPoint x="260" y="540" />
            </Array>
            <mxPoint x="290" y="540" as="sourcePoint" />
            <mxPoint x="160" y="540" as="targetPoint" />
          </mxGeometry>
        </mxCell>
        <mxCell id="CKdBgYDA7S_xCmzbfcw5-36" value="Decision-Making&lt;br&gt;Engine" style="rounded=1;whiteSpace=wrap;html=1;fontSize=12;glass=0;strokeWidth=1;shadow=0;" parent="WIyWlLk6GJQsqaUBKTNV-1" vertex="1">
          <mxGeometry x="290" y="410" width="330" height="180" as="geometry" />
        </mxCell>
        <mxCell id="RWdB_uSGL2HD2b4y-5eJ-12" style="edgeStyle=orthogonalEdgeStyle;rounded=0;orthogonalLoop=1;jettySize=auto;html=1;entryX=0;entryY=0.25;entryDx=0;entryDy=0;exitX=1;exitY=0.25;exitDx=0;exitDy=0;" parent="WIyWlLk6GJQsqaUBKTNV-1" source="CKdBgYDA7S_xCmzbfcw5-45" target="CKdBgYDA7S_xCmzbfcw5-36" edge="1">
          <mxGeometry relative="1" as="geometry" />
        </mxCell>
        <mxCell id="CKdBgYDA7S_xCmzbfcw5-45" value="Logging&lt;br&gt;&amp;amp;&lt;br&gt;Monitoring" style="rounded=1;whiteSpace=wrap;html=1;fontSize=12;glass=0;strokeWidth=1;shadow=0;" parent="WIyWlLk6GJQsqaUBKTNV-1" vertex="1">
          <mxGeometry x="80" y="360" width="80" height="380" as="geometry" />
        </mxCell>
        <mxCell id="RWdB_uSGL2HD2b4y-5eJ-8" value="Confirmation&amp;nbsp;&lt;br&gt;&amp;amp;&lt;br&gt;Response" style="edgeStyle=orthogonalEdgeStyle;rounded=0;orthogonalLoop=1;jettySize=auto;html=1;" parent="WIyWlLk6GJQsqaUBKTNV-1" source="CKdBgYDA7S_xCmzbfcw5-56" target="CKdBgYDA7S_xCmzbfcw5-69" edge="1">
          <mxGeometry relative="1" as="geometry">
            <Array as="points">
              <mxPoint x="310" y="780" />
              <mxPoint x="310" y="780" />
            </Array>
          </mxGeometry>
        </mxCell>
        <mxCell id="CKdBgYDA7S_xCmzbfcw5-56" value="External Trading Platform API" style="whiteSpace=wrap;html=1;" parent="WIyWlLk6GJQsqaUBKTNV-1" vertex="1">
          <mxGeometry x="80" y="830" width="650" height="60" as="geometry" />
        </mxCell>
        <mxCell id="CKdBgYDA7S_xCmzbfcw5-81" value="&lt;br&gt;&lt;span style=&quot;font-size: 36px;&quot;&gt;QuantWorker Context View: CV.01&lt;/span&gt;" style="rounded=1;whiteSpace=wrap;html=1;" parent="WIyWlLk6GJQsqaUBKTNV-1" vertex="1">
          <mxGeometry x="20" y="50" width="780" height="70" as="geometry" />
        </mxCell>
        <mxCell id="RWdB_uSGL2HD2b4y-5eJ-0" value="Messaging&lt;br&gt;&amp;amp;&lt;br&gt;Cache" style="rounded=1;whiteSpace=wrap;html=1;fontSize=12;glass=0;strokeWidth=1;shadow=0;" parent="WIyWlLk6GJQsqaUBKTNV-1" vertex="1">
          <mxGeometry x="650" y="360" width="80" height="380" as="geometry" />
        </mxCell>
        <mxCell id="CKdBgYDA7S_xCmzbfcw5-69" value="Execution Layer" style="rounded=1;whiteSpace=wrap;html=1;fontSize=12;glass=0;strokeWidth=1;shadow=0;" parent="WIyWlLk6GJQsqaUBKTNV-1" vertex="1">
          <mxGeometry x="80" y="680" width="650" height="60" as="geometry" />
        </mxCell>
        <mxCell id="RWdB_uSGL2HD2b4y-5eJ-3" value="" style="edgeStyle=orthogonalEdgeStyle;rounded=0;orthogonalLoop=1;jettySize=auto;html=1;" parent="WIyWlLk6GJQsqaUBKTNV-1" edge="1">
          <mxGeometry relative="1" as="geometry">
            <Array as="points">
              <mxPoint x="380" y="370" />
              <mxPoint x="380" y="370" />
            </Array>
            <mxPoint x="380" y="360" as="sourcePoint" />
            <mxPoint x="380" y="410" as="targetPoint" />
          </mxGeometry>
        </mxCell>
        <mxCell id="RWdB_uSGL2HD2b4y-5eJ-11" style="edgeStyle=orthogonalEdgeStyle;rounded=0;orthogonalLoop=1;jettySize=auto;html=1;" parent="WIyWlLk6GJQsqaUBKTNV-1" source="CKdBgYDA7S_xCmzbfcw5-69" edge="1">
          <mxGeometry relative="1" as="geometry">
            <mxPoint x="570" y="591" as="targetPoint" />
            <Array as="points">
              <mxPoint x="570" y="591" />
            </Array>
          </mxGeometry>
        </mxCell>
        <mxCell id="J8GsaRCaLDSK32VPsPAR-0" value="" style="rounded=0;whiteSpace=wrap;html=1;" vertex="1" parent="WIyWlLk6GJQsqaUBKTNV-1">
          <mxGeometry x="80" y="320" width="650" height="420" as="geometry" />
        </mxCell>
      </root>
    </mxGraphModel>
  </diagram>
</mxfile>
